<svg height="71" viewBox="0 0 270 71" width="270" xmlns="http://www.w3.org/2000/svg"><g fill="none" fill-rule="evenodd"><g fill="#fff" transform="translate(81.897691 25.880172)"><path d="m42.6355977 25.7166735c-2.6779592 5.7384839-8.8415161 8.9273178-20.5318076 8.9273178-9.3516035 0-15.43014579-2.3386881-18.70320701-6.2910788-2.2528863-2.636239-3.40058309-6.2918659-3.40058309-10.9676676 0-4.2507289 1.06268222-7.77883382 3.18804665-10.37177843 3.40058309-4.25072886 9.52163265-6.80116618 19.12906705-6.80116618 13.0922449 0 18.5331778 4.67580175 20.5310204 9.64836735.3825656.98160346.6171429 2.02932946.7564723 2.94795916.1456268.9548397-.5911662 1.8136443-1.5570262 1.8136443h-8.786414c-.7021575 0-1.3019825-.4683673-1.5090088-1.1390379-.1448396-.466793-.3597376-.9343731-.636035-1.3263848-1.2327113-1.7853061-3.9531778-3.10303207-8.9273177-3.10303207-4.5057726 0-7.7780467 1.14769677-9.266589 3.48559767-.7651312 1.1476968-1.0626822 2.8479883-1.0626822 4.9733528 0 2.2953935.3825656 3.8681632 1.1909913 5.01586 1.6569971 2.4654228 5.3551312 3.4013703 9.1815743 3.4013703 4.4632653 0 7.651312-.8934402 9.0540525-2.9337901.274723-.3896501.4628571-.8155102.5848688-1.2649854.1897085-.6997959.8005539-1.2004373 1.5255394-1.2004373h8.6785714c.9697959 0 1.7136735.8666763 1.5554519 1.8230903-.1818367 1.0988922-.4786006 2.356793-.9949854 3.3627989"/><path d="m83.272172 17.3429738c0-4.8041108-1.9978426-8.67227409-10.8818659-8.67227409-8.1196793 0-10.754344 3.44309039-10.754344 8.67227409 0 5.313411 2.4221283 8.7565014 10.7960641 8.7565014 8.4172304 0 10.8401458-3.656414 10.8401458-8.7565014m11.5619825-.1275219c0 10.6268222-6.631137 17.4287755-22.4021283 17.4287755-14.3249562 0-22.4438484-5.866793-22.4438484-17.4287755 0-10.24504374 7.7363266-17.2154519 22.4438484-17.2154519 14.9208455 0 22.4021283 6.41781341 22.4021283 17.2154519"/><path d="m131.135143 10.2437843c-.595102-1.10518955-1.785306-1.40274057-3.570612-1.40274057h-13.13554v7.65288627h13.348076c1.827813 0 2.933003-.3400583 3.358076-1.1894169.297551-.5108746.382565-1.9781632.382565-2.530758 0-.6376093-.085014-2.104898-.382565-2.5299708m9.734169 8.5455393c-1.190204 1.615277-3.018018 2.9762974-5.270904 3.3155685l6.745277 9.5452478c.736793 1.043003-.008659 2.4835277-1.285452 2.4835277h-8.778542c-.529767 0-1.024111-.2668513-1.315364-.7092419l-6.247785-9.490933h-10.329271v8.6258309c0 .8690379-.705306 1.574344-1.574344 1.574344h-8.201545c-.869038 0-1.574344-.7053061-1.574344-1.574344v-30.22032068c0-.86903791.705306-1.57434403 1.574344-1.57434403h24.993498c5.270904 0 8.713995 1.27521866 10.711837 3.40058309 1.530263 1.57276968 2.252886 4.52781341 2.252886 7.54583092 0 2.5929446-.637609 5.5904956-1.700291 7.0782507"/><path d="m152.727822 32.5590875v-30.22032074c0-.8690379.705306-1.57434402 1.574344-1.57434402h31.708076c.869038 0 1.574344.70530612 1.574344 1.57434402v5.18274053c0 .86982507-.705306 1.57434402-1.574344 1.57434402h-22.060496v4.29323619h21.380379c.869038 0 1.574344.7053061 1.574344 1.574344v4.9709912c0 .8690379-.705306 1.5743441-1.574344 1.5743441h-21.380379v4.3357434h22.358047c.869038 0 1.574344.704519 1.574344 1.574344v5.1402333c0 .8690379-.705306 1.574344-1.574344 1.574344h-32.005627c-.869038 0-1.574344-.7053061-1.574344-1.574344"/></g><g transform="translate(.000157 .662286)"><path d="m50.3790087 14.9886643h-10.832274l7.244344-4.9812245c.7171137-.49276972.8981633-1.47279887.4061808-2.1891254l-4.905656-7.13571429c-.4927697-.71632653-1.473586-.89816327-2.1899125-.40539358l-13.023761 8.95408163c-.7171137.49276968-.8981632 1.47279884-.4053936 2.18912534l2.452828 3.5682508h-21.25364428c-4.34755102 0-7.87172012 3.524169-7.87172012 7.8717201v39.3586006c0 4.347551 3.5241691 7.8717201 7.87172012 7.8717201h42.50728858c4.3467639 0 7.8717202-3.5241691 7.8717202-7.8717201v-39.3586006c0-4.3475511-3.5249563-7.8717201-7.8717202-7.8717201" fill="#fff"/><g fill="#121212"><path d="m40.690102 55.2824252c-.5455102.4817493-1.3877842.4022449-1.8333236-.173965-2.7747813-3.5879301-4.2885131-8.0016035-4.2885131-12.5687755 0-4.5671721 1.5137318-8.9808455 4.2885131-12.5695627.4455394-.5754228 1.2878134-.6549271 1.8333236-.1731779l1.8892129 1.6680175c.4919825.434519.5644023 1.1728863.1676676 1.6955685-2.0387755 2.6897668-3.1502624 5.9777843-3.1502624 9.3791546 0 3.4013702 1.1114869 6.6893877 3.1502624 9.3783673.3967347.5234694.3243149 1.2618367-.1676676 1.6955685z"/><path d="m17.560312 55.2824252-1.8892129-1.6688047c-.4919825-.4337318-.5644023-1.1720991-.1676676-1.6955685 2.0387755-2.6889796 3.1502624-5.9769971 3.1502624-9.3783673 0-3.4013703-1.1114869-6.6893878-3.1502624-9.3791546-.3967347-.5226822-.3243149-1.2610495.1676676-1.6955685l1.8892129-1.6680175c.5455102-.4817492 1.3877842-.4022449 1.8333236.1731779 2.7747813 3.5887172 4.2885131 8.0023906 4.2885131 12.5695627 0 4.567172-1.5137318 8.9808454-4.2885131 12.5687755-.4455394.5762099-1.2878134.6557143-1.8333236.173965"/></g></g></g></svg>