<?xml version="1.0" encoding="UTF-8"?>
<svg width="287px" height="36px" viewBox="0 0 287 36" version="1.1" xmlns="http://www.w3.org/2000/svg" xmlns:xlink="http://www.w3.org/1999/xlink">
    <!-- Generator: Sketch 64 (93537) - https://sketch.com -->
    <title>logo/secondary</title>
    <desc>Created with Sketch.</desc>
    <g id="Symbols" stroke="none" stroke-width="1" fill="none" fill-rule="evenodd">
        <g id="nav/desktop" transform="translate(-40.000000, -42.000000)">
            <g id="logo/secondary" transform="translate(40.000000, 42.000000)">
                <g id="⚙️/logo/secondary/v1">
                    <g id="kirkpatrick-bank-logo">
                        <g id="mark" fill-rule="nonzero">
                            <polygon id="Path" fill="#2650A9" points="0 -3.46389584e-14 0 29.325 5.025 29.325 5.025 5.025 29.625 5.025 29.625 -3.46389584e-14"></polygon>
                            <polygon id="Path" fill="#2650A9" points="30.825 6.92779167e-14 30.825 30.45 1.35891298e-13 30.45 1.35891298e-13 35.475 36.075 35.475 36.075 6.92779167e-14"></polygon>
                            <polygon id="Path" fill="#2F79CA" points="6.15 29.325 11.175 29.325 11.175 11.175 29.625 11.175 29.625 6.225 6.15 6.225"></polygon>
                            <rect id="Rectangle" fill="#000000" x="12.3" y="12.375" width="17.25" height="16.95"></rect>
                        </g>
                        <g id="wordmark" transform="translate(42.000000, 13.500000)" fill="#FFFFFF" fill-rule="nonzero">
                            <path d="M136.2,2.325 C138.6,2.325 140.25,2.925 141.675,3.525 C141.675,3.525 141.825,3.6 141.9,3.6 L142.65,5.625 L142.425,5.625 C141.6,4.8 139.35,2.85 135.825,2.85 C129.9,2.85 127.05,7.05 127.05,10.8 C127.05,14.25 129.45,21.525 137.175,21.525 C140.1,21.525 143.175,20.55 144.525,18.975 L144.675,19.05 L143.325,21.075 C139.95,21.825 139.05,22.05 136.5,22.05 C132.45,22.05 130.2,21.15 128.7,20.025 C126.6,18.525 125.175,15.75 125.175,12.6 C125.175,7.65 128.85,2.325 136.2,2.325 Z M108.975,2.625 C111.075,2.625 111.975,2.625 113.1,3 C114.75,3.525 115.875,4.8 115.875,6.9 C115.875,9.15 114.225,10.95 112.5,11.925 L114,14.175 C114.3,14.625 116.55,17.925 118.05,19.65 C118.413867,20.0866406 119.62509,21.158798 121.067019,21.2220725 C121.246965,20.9738396 121.271184,20.5715743 121.274481,19.9083181 L121.274351,4.63194128 C121.266568,3.40340237 121.165385,2.70576923 119.85,2.775 L119.85,2.625 L124.95,2.625 L124.95,2.775 C124.65,2.775 123.525,2.7 123.525,3.75 L123.525,19.425 C123.525,20.925 123.525,21.525 125.025,21.525 L125.025,21.75 L121.523282,21.7498315 C120.986763,21.8933398 120.212964,22.05 119.4,22.05 C118.35,22.05 116.925,21.825 115.65,20.175 C114.225,18.45 112.425,15.825 112.35,15.75 C112.35,15.675 112.275,15.675 112.275,15.6 L110.325,12.675 L107.025,12.675 L107.025,19.95 C107.025,21.45 107.475,21.6 108.375,21.6 L108.375,21.75 L103.5,21.75 L103.5,21.525 C104.7,21.45 104.925,21.15 104.925,19.725 L104.925,4.5 C104.925,2.925 104.475,2.775 103.5,2.775 L103.5,2.625 L108.975,2.625 Z M34.725,2.625 C36.825,2.625 37.725,2.625 38.85,3 C40.5,3.525 41.625,4.8 41.625,6.9 C41.625,9.15 39.975,10.95 38.25,11.925 L39.75,14.175 C40.05,14.625 42.3,17.925 43.8,19.65 C44.1546151,20.0755382 45.3140424,21.1046854 46.7709065,21.2153161 C47.0051587,20.8976295 47.025,20.3829421 47.025,19.65 L47.025,4.725 C47.025,3.075 46.875,2.7 45.375,2.775 L45.375,2.625 L51,2.625 L51,2.775 C49.5576923,2.70288462 49.3635355,3.18550296 49.350734,4.48955394 L49.35,12 L60.75,3.45 C60.825,3.375 61.125,3.225 61.125,3 C61.125,2.7 60.525,2.775 60.375,2.775 L60.375,2.625 L64.5,2.625 L64.5,2.775 C63.45,2.775 62.55,3.15 61.425,3.9 L51.45,11.25 L61.425,18.75 C61.5,18.75 61.5,18.825 61.575,18.825 C62.025,19.2 62.625,19.575 62.85,19.725 C64.4156774,20.7925073 65.2385228,21.3873033 66.4078805,21.445309 C66.6925514,21.2929053 66.9,20.9916667 66.9,20.4 L66.9,4.5 L66.975,4.5 C66.975,3.525 66.975,2.85 65.625,2.85 L65.625,2.7 L71.1,2.7 C72.975,2.7 77.925,2.7 77.925,7.5 C77.925,11.1 75.075,12.375 71.625,12.3 L71.625,12.15 C73.875,12.15 75.75,10.725 75.75,8.1 C75.75,6.45 75.075,4.8 73.725,3.975 C73.125,3.6 72.375,3.375 70.5,3.375 L69.15,3.375 L69.15,19.725 C69.15,21.375 69.3,21.6 70.65,21.6 L70.65,21.75 L60,21.75 L60,21.6 L60.2153644,21.5990984 C60.5485537,21.5950413 60.9,21.5727273 60.9,21.45 C60.9,21.3 60.525,21 60.15,20.7 L49.275,12.525 L49.2756706,19.790032 C49.2840535,20.9565844 49.3972222,21.5944444 50.925,21.525 L50.925,21.75 L47.241892,21.7495147 C46.6986789,21.8931091 45.9635622,22.05 45.15,22.05 C44.1,22.05 42.75,21.825 41.4,20.175 C39.975,18.45 38.175,15.825 38.1,15.75 C38.1,15.675 38.025,15.675 38.025,15.6 L36.075,12.675 L32.775,12.675 L32.775,19.95 C32.775,21.45 33.225,21.6 34.125,21.6 L34.125,21.75 L29.25,21.75 L29.25,21.525 C30.45,21.45 30.675,21.15 30.675,19.725 L30.675,4.5 C30.675,2.925 30.225,2.775 29.25,2.775 L29.25,2.625 L34.725,2.625 Z M194.625,2.4 L201.525,19.275 C201.525,19.275 201.525,19.425 201.6,19.5 L201.675,19.8 C201.936118,20.4527961 202.310875,21.3328682 203.194909,21.5500268 C204.15,21.3962151 204.15,20.9291159 204.15,19.575 L204.15,6.6 C204.15,5.325 204.15,2.7 201.45,2.85 L201.45,2.7 L205.05,2.7 L219.525,17.925 L219.525,4.425 C219.525,3 218.925,2.85 218.1,2.85 L218.1,2.625 L221.775,2.625 L221.775,2.775 C220.725,2.775 220.275,3.075 220.275,4.5 L220.275,21.9 L204.9,5.7 L204.9,19.8 C204.9,21.3 205.275,21.375 206.325,21.45 L206.325,21.75 L203.625,21.749 L203.625,21.75 L199.125,21.75 L199.125,21.6 C199.725,21.6 199.725,21.15 199.725,21.15 C199.725,20.85 199.575,20.4 199.425,20.1 C199.35,20.025 199.35,19.8 199.275,19.8 L196.575,12.9 L190.95,12.9 L188.025,20.1 C187.95,20.25 187.875,20.4 187.875,20.475 C187.725,20.775 187.725,20.925 187.725,21.075 C187.725,21.525 188.175,21.525 188.4,21.525 L188.4,21.75 L185.55,21.75 L185.55,21.6 C186.675,21.6 186.975,20.775 187.35,19.875 L194.325,2.4 L194.625,2.4 Z M82.575,2.4 L89.475,19.275 C89.475,19.275 89.475,19.425 89.55,19.5 L89.625,19.8 C89.925,20.55 90.375,21.6 91.575,21.6 L91.575,21.75 L87.075,21.75 L87.075,21.6 C87.675,21.6 87.675,21.15 87.675,21.15 C87.675,20.85 87.525,20.4 87.375,20.1 C87.3,20.025 87.3,19.8 87.225,19.8 L84.6,12.9 L78.975,12.9 L76.05,20.1 C75.975,20.25 75.9,20.4 75.9,20.475 C75.75,20.775 75.75,20.925 75.75,21.075 C75.75,21.525 76.2,21.525 76.425,21.525 L76.425,21.75 L73.5,21.75 L73.5,21.6 C74.625,21.6 74.925,20.775 75.3,19.875 L82.275,2.4 L82.575,2.4 Z M150.15,2.625 L150.15,2.775 C148.707692,2.70288462 148.513536,3.18550296 148.500734,4.48955394 L148.5,12 L159.975,3.45 C160.05,3.375 160.35,3.225 160.35,3 C160.35,2.7 159.75,2.775 159.6,2.775 L159.6,2.625 L163.725,2.625 L163.725,2.775 C162.675,2.775 161.775,3.15 160.65,3.9 L150.675,11.25 L160.65,18.75 C160.725,18.75 160.725,18.825 160.8,18.825 C161.25,19.2 161.85,19.575 162.075,19.725 C163.725,20.85 164.55,21.45 165.825,21.45 L165.825,21.75 L159.225,21.75 L159.225,21.6 L159.440364,21.5990984 C159.773554,21.5950413 160.125,21.5727273 160.125,21.45 C160.125,21.3 159.75,21 159.375,20.7 L148.5,12.45 L148.500671,19.790032 C148.509053,20.9565844 148.622222,21.5944444 150.15,21.525 L150.15,21.75 L144.6,21.75 L144.6,21.6 C146.175,21.675 146.25,21.075 146.25,19.65 L146.25,4.725 C146.25,3.075 146.1,2.7 144.6,2.775 L144.6,2.625 L150.15,2.625 Z M6.225,0.675 L6.225,0.9 C4.63611111,0.827777778 4.43816872,1.38148148 4.42568587,2.76202561 L4.425,11.025 L17.025,1.65 C17.175,1.575 17.4,1.35 17.4,1.2 C17.4,0.9 16.725,0.9 16.575,0.9 L16.575,0.675 L21.15,0.675 L21.15,0.9 C20.025,0.9 18.975,1.275 17.775,2.175 L6.825,10.275 L17.775,18.525 C17.85,18.525 17.925,18.6 17.925,18.6 C18.45,18.975 19.05,19.425 19.35,19.575 C21.15,20.775 22.05,21.45 23.475,21.45 L23.4764938,21.5232533 C24.225,21.3587471 24.225,20.9063047 24.225,19.575 L24.225,4.95 C24.225,3.525 24.225,2.7 22.8,2.775 L22.8,2.625 L27.9,2.625 L27.9,2.775 C27.6,2.775 26.475,2.7 26.475,3.75 L26.4756097,19.7436405 C26.4832305,21.0105967 26.5861111,21.525 27.975,21.525 L27.975,21.75 L16.275,21.75 L16.275,21.525 C16.725,21.525 17.25,21.525 17.25,21.3 C17.25,21.15 16.875,20.775 16.425,20.55 L4.425,11.55 L4.42559043,19.6506396 C4.43356124,20.9595125 4.54913793,21.6698276 6.225,21.6 L6.225,21.75 L0.15,21.75 L0.15,21.525 C1.95,21.6 1.95,20.925 1.95,19.425 L1.95,3.075 C1.95,1.275 1.8,0.825 0.15,0.9 L0.15,0.675 L6.225,0.675 Z M228.45,2.625 L228.45,2.775 C227.007692,2.70288462 226.813536,3.18550296 226.800734,4.48955394 L226.8,12 L238.275,3.45 C238.35,3.375 238.65,3.225 238.65,3 C238.65,2.7 238.05,2.775 237.9,2.775 L237.9,2.625 L242.025,2.625 L242.025,2.775 C240.975,2.775 240.075,3.15 238.95,3.9 L228.975,11.25 L238.95,18.75 C239.025,18.75 239.025,18.825 239.1,18.825 C239.625,19.2 240.15,19.575 240.375,19.725 C242.025,20.85 242.85,21.45 244.125,21.45 L244.125,21.75 L237.525,21.75 L237.525,21.6 L237.740364,21.5990984 C238.073554,21.5950413 238.425,21.5727273 238.425,21.45 C238.425,21.3 238.05,21 237.675,20.7 L226.8,12.525 L226.8,19.5 C226.8,20.85 226.8,21.6 228.45,21.525 L228.45,21.75 L222.9,21.75 L222.9,21.6 C224.416667,21.6722222 224.542387,21.1185185 224.549619,19.8049459 L224.55,4.725 C224.55,3.075 224.4,2.7 222.9,2.775 L222.9,2.625 L228.45,2.625 Z M87,1.875 C87.15,2.175 87.3,2.4 87.525,2.475 C87.7125,2.5375 87.9520833,2.54791667 88.24375,2.54965278 L101.25,2.55 C102,2.55 102.6,2.625 102.825,1.875 L102.975,1.875 L102.975,1.95 L102.075,4.275 L101.85,4.275 C101.925,3.975 101.925,3.9 101.925,3.75 C101.925,3.26 101.467667,3.29266667 101.1018,3.2992 L96,3.3 L96,19.65 C96,21.15 96.15,21.6 97.5,21.6 L97.5,21.75 L92.25,21.75 L92.25,21.6 C93.45,21.525 93.75,21.375 93.75,19.95 L93.75,3.225 L88.95,3.225 C88.125,3.225 87.75,3.225 87.75,3.675 C87.75,3.825 87.75,3.9 87.825,4.2 L87.675,4.2 L86.775,1.875 L87,1.875 Z M181.725,1.275 C183.6,2.1 184.875,3.675 184.875,5.7 C184.875,8.4 182.7,9.525 182.025,9.9 C182.85,10.05 184.125,10.275 185.175,11.25 C185.85,11.775 186.975,13.125 186.975,15.375 C186.975,18.225 185.25,20.1 183.975,20.85 C182.709375,21.6234375 181.180078,21.6717773 179.819696,21.6747986 L170.7,21.675 L170.7,21.525 C172.236207,21.525 172.342152,21.0049049 172.349459,19.4804881 L172.349459,2.93205748 C172.342152,1.36471463 172.236207,0.969827586 170.7,0.9 L170.7,0.675 L176.7,0.675 C179.1,0.675 180.525,0.75 181.725,1.275 Z M176.775,10.8 L174.975,10.8 L174.975,17.475 C174.975,19.575 174.975,21.15 179.625,21.15 C180.45,21.15 181.65,21.15 182.625,20.55 C183.675,20.025 184.5,18.825 184.5,16.65 C184.5,13.8 183.15,11.475 180.825,11.025 C180,10.875 178.95,10.8 176.775,10.8 Z M193.725,5.85 L191.175,12.375 L196.35,12.375 L193.725,5.85 Z M81.675,5.85 L79.125,12.375 L84.3,12.375 L81.675,5.85 Z M108.6,3.075 L107.1,3.075 L107.1,12.075 L109.125,12.075 C109.8,12.075 111.225,11.925 111.825,11.55 C112.8,11.025 113.775,9.9 113.775,8.025 C113.775,6.825 113.325,5.4 112.275,4.275 C111.525,3.525 110.475,3.075 108.6,3.075 Z M34.425,3.075 L32.925,3.075 L32.925,12.075 L34.95,12.075 C35.625,12.075 37.05,11.925 37.65,11.55 C38.625,11.025 39.6,9.9 39.6,8.025 C39.6,6.825 39.15,5.4 38.1,4.275 C37.35,3.525 36.3,3.075 34.425,3.075 Z M175.65,1.125 L174.975,1.125 L174.975,10.35 L177.75,10.35 C182.175,10.35 182.475,6.825 182.475,5.925 C182.475,3.525 181.2,2.325 179.775,1.725 C178.275,1.125 176.625,1.125 175.65,1.125 Z" id="wordmark-shape"></path>
                        </g>
                    </g>
                </g>
            </g>
        </g>
    </g>
</svg>