<?xml version="1.0" encoding="UTF-8"?>
<svg width="145px" height="25px" viewBox="0 0 145 25" version="1.1" xmlns="http://www.w3.org/2000/svg" xmlns:xlink="http://www.w3.org/1999/xlink">
    <!-- Generator: Sketch 64 (93537) - https://sketch.com -->
    <title>Group 45</title>
    <desc>Created with Sketch.</desc>
    <defs>
        <polygon id="path-1" points="0 25 144.169 25 144.169 0.36 0 0.36"></polygon>
    </defs>
    <g id="-" stroke="none" stroke-width="1" fill="none" fill-rule="evenodd">
        <g id="Footer" transform="translate(-648.000000, -206.000000)">
            <g id="Group-45" transform="translate(648.000000, 205.000000)">
                <polygon id="Fill-1" fill="#2B52A4" points="0 0.9999 0 21.3719 3.479 21.3719 3.479 4.4959 20.551 4.4959 20.551 0.9999"></polygon>
                <polygon id="Fill-2" fill="#2B52A4" points="21.3633 0.9999 21.3633 22.1069 0.0003 22.1069 0.0003 25.6399 25.0123 25.6399 25.0123 0.9999"></polygon>
                <polygon id="Fill-3" fill="#3977BC" points="4.2908 21.3727 7.7458 21.3727 7.7458 8.7727 20.5508 8.7727 20.5508 5.3097 4.2908 5.3097"></polygon>
                <polygon id="Fill-4" fill="#FFFFFF" points="8.557 21.3721 20.551 21.3721 20.551 9.5851 8.557 9.5851"></polygon>
                <g id="Group-44" transform="translate(0.000000, 0.640100)">
                    <path d="M29.2498,0.36 L33.4648,0.36 L33.4648,0.506 C32.3208,0.466 32.2158,0.869 32.2158,1.925 L32.2158,7.521 L40.9528,1.012 C41.0388,0.95 41.2198,0.829 41.2198,0.689 C41.2198,0.466 40.7498,0.506 40.6278,0.506 L40.6278,0.36 L43.7978,0.36 L43.7978,0.506 C43.0218,0.525 42.2858,0.769 41.4648,1.378 L33.8538,7.017 L41.4468,12.736 C41.4858,12.754 41.5268,12.798 41.5468,12.798 C41.9158,13.059 42.3478,13.364 42.5298,13.485 C43.7978,14.316 44.4108,14.804 45.4158,14.804 L45.4158,14.945 L40.4028,14.945 L40.4028,14.804 C40.6908,14.804 41.0778,14.825 41.0778,14.661 C41.0778,14.541 40.8118,14.316 40.5258,14.116 L32.2158,7.847 L32.2158,13.263 C32.2158,14.316 32.2378,14.886 33.4648,14.804 L33.4648,14.945 L29.2498,14.945 L29.2498,14.804 C30.4768,14.864 30.5188,14.398 30.5188,13.321 L30.5188,2.005 C30.5188,0.749 30.3958,0.466 29.2498,0.506 L29.2498,0.36" id="Fill-5" fill="#FFFFFF"></path>
                    <path d="M44.9041,1.6867 L48.4751,1.6867 L48.4751,1.8157 C48.2871,1.8027 47.4681,1.7807 47.4681,2.5187 C47.4491,2.6297 47.4491,3.1097 47.4491,3.2017 L47.4491,13.3787 C47.4491,14.4317 47.4491,14.8347 48.4751,14.8167 L48.4751,14.9457 L44.9041,14.9457 L44.9041,14.8167 C45.8681,14.7787 45.9061,14.5407 45.9061,13.3957 L45.9061,3.3117 C45.9061,2.3337 45.9061,1.7627 44.9041,1.8157 L44.9041,1.6867" id="Fill-7" fill="#FFFFFF"></path>
                    <path d="M51.9705,2.0573 L51.9705,8.2333 L53.3665,8.2333 C53.8485,8.2333 54.8175,8.1223 55.2645,7.8823 C55.9165,7.5333 56.6205,6.7413 56.6205,5.4503 C56.6205,4.6193 56.3225,3.6043 55.6005,2.8683 C55.0605,2.3333 54.3535,2.0573 53.0665,2.0573 L51.9705,2.0573 Z M49.4585,14.8163 C50.3155,14.7783 50.4265,14.5783 50.4265,13.5633 L50.4265,3.0153 C50.4265,1.9123 50.0945,1.8363 49.4585,1.8163 L49.4585,1.6863 L53.2535,1.6863 C54.7065,1.6863 55.3375,1.6863 56.1015,1.9303 C57.2345,2.2783 58.0345,3.1633 58.0345,4.6193 C58.0345,6.1713 56.9005,7.4413 55.6905,8.0863 L56.7145,9.6523 C56.9005,9.9853 58.4825,12.2723 59.5235,13.4503 C59.8025,13.7833 60.6575,14.5183 61.7385,14.5183 C62.2215,14.5183 62.4435,14.4323 62.6475,14.3363 C62.9465,14.2083 63.1675,14.0603 63.2815,14.0033 L63.3375,14.1903 C62.9465,14.4853 62.6875,14.6333 62.3155,14.7783 C61.9775,14.9073 61.2915,15.0733 60.5075,15.0733 C59.8025,15.0733 58.8155,14.9073 57.8835,13.7833 C56.8815,12.5683 55.6525,10.7613 55.6135,10.7073 C55.6135,10.6683 55.5795,10.6313 55.5795,10.6133 L54.2395,8.5643 L53.7395,8.5853 C53.6265,8.6033 53.1425,8.6033 53.0495,8.6033 L51.9705,8.6033 L51.9705,13.6723 C51.9705,14.7243 52.2865,14.7983 52.9205,14.8163 L52.9205,14.9453 L49.4585,14.9453 L49.4585,14.8163 L49.4585,14.8163 Z" id="Fill-9" fill="#FFFFFF"></path>
                    <path d="M60.6575,1.6867 L64.4905,1.6867 L64.4905,1.8157 C63.4485,1.7807 63.3535,2.1487 63.3535,3.1097 L63.3535,8.1977 L71.2985,2.2777 C71.3715,2.2237 71.5415,2.1137 71.5415,1.9837 C71.5415,1.7807 71.1115,1.8157 71.0005,1.8157 L71.0005,1.6867 L73.8855,1.6867 L73.8855,1.8157 C73.1785,1.8357 72.5085,2.0577 71.7655,2.6117 L64.8415,7.7377 L71.7475,12.9357 C71.7805,12.9557 71.8175,12.9927 71.8385,12.9927 C72.1735,13.2317 72.5635,13.5067 72.7295,13.6187 C73.8855,14.3747 74.4425,14.8167 75.3545,14.8167 L75.3545,14.9457 L70.7955,14.9457 L70.7955,14.8167 C71.0545,14.8167 71.4085,14.8347 71.4085,14.6877 C71.4085,14.5787 71.1685,14.3747 70.9085,14.1907 L63.3535,8.4927 L63.3535,13.4177 C63.3535,14.3747 63.3705,14.8897 64.4905,14.8167 L64.4905,14.9457 L60.6575,14.9457 L60.6575,14.8167 C61.7735,14.8697 61.8115,14.4487 61.8115,13.4687 L61.8115,3.1817 C61.8115,2.0397 61.6995,1.7807 60.6575,1.8157 L60.6575,1.6867" id="Fill-11" fill="#FFFFFF"></path>
                    <path d="M75.6326,2.9777 C75.6326,2.2777 75.6326,1.8167 74.6846,1.8167 L74.6846,1.6867 L78.4986,1.6867 C79.8196,1.6867 83.2226,1.6867 83.2226,5.0247 C83.2226,7.4987 81.2696,8.4017 78.8696,8.3607 L78.8696,8.2327 C80.4336,8.2327 81.7546,7.2567 81.7546,5.4337 C81.7546,4.2897 81.2866,3.1637 80.3406,2.5737 C79.9296,2.3157 79.3886,2.1327 78.1256,2.1327 L77.1756,2.1327 L77.1756,13.4907 C77.1756,14.6137 77.2716,14.7957 78.2186,14.8167 L78.2186,14.9457 L74.6846,14.9457 L74.6846,14.8167 C75.1116,14.7957 75.6326,14.7447 75.6326,13.9657 L75.6326,2.9777" id="Fill-13" fill="#FFFFFF"></path>
                    <path d="M84.0599,8.4763 L87.6699,8.4763 L85.8639,3.9573 L84.0599,8.4763 Z M87.8369,8.8423 L83.9269,8.8423 L81.9019,13.8583 C81.8669,13.9493 81.8099,14.0803 81.8099,14.0973 C81.7139,14.3003 81.6969,14.3933 81.6969,14.5183 C81.6969,14.8353 81.9969,14.8163 82.1459,14.8163 L82.1459,14.9453 L80.1549,14.9453 L80.1549,14.8163 C80.9519,14.7983 81.1569,14.2633 81.4169,13.6183 L86.2759,1.4863 L86.4989,1.4863 L91.2789,13.2103 C91.2789,13.2313 91.2979,13.3053 91.3329,13.3593 L91.4089,13.5633 C91.5959,14.0603 91.9309,14.8163 92.7659,14.8163 L92.7659,14.9453 L89.6409,14.9453 L89.6409,14.8163 C90.0519,14.8163 90.0699,14.5183 90.0699,14.4853 C90.0699,14.3003 89.9569,13.9873 89.8649,13.7663 C89.8289,13.6933 89.7899,13.5803 89.7699,13.5633 L87.8369,8.8423 L87.8369,8.8423 Z" id="Fill-15" fill="#FFFFFF"></path>
                    <path d="M100.619,1.2287 L99.986,2.8317 L99.853,2.8317 C99.912,2.6487 99.891,2.5537 99.891,2.4437 C99.891,2.0947 99.52,2.1337 99.26,2.1337 L95.76,2.1337 L95.76,13.4687 C95.76,14.5187 95.854,14.8347 96.821,14.8167 L96.821,14.9457 L93.195,14.9457 L93.195,14.8167 C94.031,14.7447 94.218,14.6517 94.218,13.6547 L94.218,2.1337 L90.869,2.1337 C90.274,2.1337 90.052,2.1137 90.052,2.4647 C90.052,2.5537 90.07,2.6297 90.125,2.8317 L89.996,2.8317 L89.362,1.2287 L89.493,1.2287 C89.604,1.4507 89.715,1.5777 89.844,1.6317 C89.996,1.6867 90.202,1.6867 90.494,1.6867 L99.389,1.6867 C99.928,1.6867 100.305,1.7267 100.49,1.2287 L100.619,1.2287" id="Fill-17" fill="#FFFFFF"></path>
                    <path d="M103.4647,2.0573 L103.4647,8.2333 L104.8597,8.2333 C105.3417,8.2333 106.3107,8.1223 106.7557,7.8823 C107.4097,7.5333 108.1137,6.7413 108.1137,5.4503 C108.1137,4.6193 107.8167,3.6043 107.0927,2.8683 C106.5537,2.3333 105.8477,2.0573 104.5617,2.0573 L103.4647,2.0573 Z M100.9547,14.8163 C101.8097,14.7783 101.9207,14.5783 101.9207,13.5633 L101.9207,3.0153 C101.9207,1.9123 101.5867,1.8363 100.9547,1.8163 L100.9547,1.6863 L104.7487,1.6863 C106.1997,1.6863 106.8317,1.6863 107.5937,1.9303 C108.7307,2.2783 109.5277,3.1633 109.5277,4.6193 C109.5277,6.1713 108.3937,7.4413 107.1847,8.0863 L108.2057,9.6523 C108.3937,9.9853 109.9757,12.2723 111.0187,13.4503 C111.2967,13.7833 112.1507,14.5183 113.2297,14.5183 C113.7147,14.5183 113.9357,14.4323 114.1417,14.3363 C114.4397,14.2083 114.6647,14.0603 114.7757,14.0033 L114.8317,14.1903 C114.4397,14.4853 114.1797,14.6333 113.8087,14.7783 C113.4717,14.9073 112.7847,15.0733 112.0037,15.0733 C111.2967,15.0733 110.3087,14.9073 109.3797,13.7833 C108.3747,12.5683 107.1447,10.7613 107.1127,10.7073 C107.1127,10.6683 107.0727,10.6313 107.0727,10.6133 L105.7327,8.5643 L105.2327,8.5853 C105.1177,8.6033 104.6377,8.6033 104.5447,8.6033 L103.4647,8.6033 L103.4647,13.6723 C103.4647,14.7243 103.7817,14.7983 104.4117,14.8163 L104.4117,14.9453 L100.9547,14.9453 L100.9547,14.8163 L100.9547,14.8163 Z" id="Fill-19" fill="#FFFFFF"></path>
                    <path d="M112.2484,1.6867 L115.8174,1.6867 L115.8174,1.8157 C115.6324,1.8027 114.8124,1.7807 114.8124,2.5187 C114.7924,2.6297 114.7924,3.1097 114.7924,3.2017 L114.7924,13.3787 C114.7924,14.4317 114.7924,14.8347 115.8174,14.8167 L115.8174,14.9457 L112.2484,14.9457 L112.2484,14.8167 C113.2144,14.7787 113.2494,14.5407 113.2494,13.3957 L113.2494,3.3117 C113.2494,2.3337 113.2494,1.7627 112.2484,1.8157 L112.2484,1.6867" id="Fill-21" fill="#FFFFFF"></path>
                    <path d="M128.595,14.4855 C126.272,15.0015 125.62,15.1505 123.836,15.1505 C121.004,15.1505 119.479,14.5185 118.44,13.7655 C116.988,12.7145 116.004,10.7775 116.004,8.6035 C116.004,5.1915 118.567,1.4855 123.632,1.4855 C125.305,1.4855 126.42,1.8905 127.426,2.2975 C127.44,2.2975 127.555,2.3335 127.572,2.3535 L128.076,3.7535 L127.945,3.7535 C127.369,3.1815 125.786,1.8365 123.367,1.8365 C119.278,1.8365 117.267,4.7305 117.267,7.3485 C117.267,9.7475 118.94,14.7965 124.299,14.7965 C126.308,14.7965 128.486,14.0965 129.414,13.0275 L129.527,13.0645 L128.595,14.4855" id="Fill-23" fill="#FFFFFF"></path>
                    <path d="M129.4686,1.6867 L133.3016,1.6867 L133.3016,1.8157 C132.2626,1.7807 132.1696,2.1487 132.1696,3.1097 L132.1696,8.1977 L140.1146,2.2777 C140.1866,2.2237 140.3526,2.1137 140.3526,1.9837 C140.3526,1.7807 139.9266,1.8157 139.8126,1.8157 L139.8126,1.6867 L142.6966,1.6867 L142.6966,1.8157 C141.9886,1.8357 141.3216,2.0577 140.5786,2.6117 L133.6566,7.7377 L140.5586,12.9357 C140.5966,12.9557 140.6336,12.9927 140.6506,12.9927 C140.9836,13.2317 141.3766,13.5067 141.5446,13.6187 C142.6966,14.3747 143.2576,14.8167 144.1686,14.8167 L144.1686,14.9457 L139.6096,14.9457 L139.6096,14.8167 C139.8716,14.8167 140.2246,14.8347 140.2246,14.6877 C140.2246,14.5787 139.9816,14.3747 139.7226,14.1907 L132.1696,8.4927 L132.1696,13.4177 C132.1696,14.3747 132.1866,14.8897 133.3016,14.8167 L133.3016,14.9457 L129.4686,14.9457 L129.4686,14.8167 C130.5856,14.8697 130.6246,14.4487 130.6246,13.4687 L130.6246,3.1817 C130.6246,2.0397 130.5116,1.7807 129.4686,1.8157 L129.4686,1.6867" id="Fill-25" fill="#FFFFFF"></path>
                    <path d="M69.764,23.8625 L69.764,24.5045 C69.336,24.7365 68.843,24.8535 68.284,24.8535 C67.829,24.8535 67.443,24.7615 67.127,24.5795 C66.81,24.3965 66.559,24.1455 66.375,23.8245 C66.19,23.5045 66.098,23.1575 66.098,22.7845 C66.098,22.1915 66.309,21.6935 66.732,21.2895 C67.154,20.8845 67.676,20.6825 68.295,20.6825 C68.722,20.6825 69.198,20.7955 69.72,21.0185 L69.72,21.6445 C69.244,21.3735 68.779,21.2365 68.325,21.2365 C67.858,21.2365 67.471,21.3835 67.163,21.6785 C66.855,21.9725 66.701,22.3415 66.701,22.7845 C66.701,23.2315 66.853,23.5985 67.156,23.8855 C67.459,24.1735 67.847,24.3175 68.319,24.3175 C68.812,24.3175 69.294,24.1655 69.764,23.8625" id="Fill-27" fill="#FFFFFF"></path>
                    <path d="M74.2923,21.2307 C73.8263,21.2307 73.4433,21.3767 73.1443,21.6677 C72.8443,21.9597 72.6943,22.3327 72.6943,22.7847 C72.6943,23.2237 72.8443,23.5887 73.1453,23.8797 C73.4463,24.1707 73.8223,24.3177 74.2743,24.3177 C74.7293,24.3177 75.1083,24.1687 75.4123,23.8717 C75.7153,23.5747 75.8673,23.2047 75.8673,22.7607 C75.8673,22.3307 75.7153,21.9667 75.4123,21.6727 C75.1083,21.3777 74.7343,21.2307 74.2923,21.2307 M74.2693,20.6777 C74.8983,20.6777 75.4213,20.8767 75.8403,21.2747 C76.2583,21.6727 76.4673,22.1717 76.4673,22.7727 C76.4673,23.3737 76.2563,23.8707 75.8343,24.2627 C75.4123,24.6567 74.8793,24.8537 74.2373,24.8537 C73.6233,24.8537 73.1123,24.6567 72.7043,24.2627 C72.2953,23.8707 72.0903,23.3767 72.0903,22.7847 C72.0903,22.1757 72.2963,21.6727 72.7083,21.2747 C73.1193,20.8767 73.6403,20.6777 74.2693,20.6777" id="Fill-29" fill="#FFFFFF"></path>
                    <polygon id="Fill-31" fill="#FFFFFF" points="82.2098 20.7355 82.7638 20.7355 82.7638 24.8065 82.2618 24.8065 79.5408 21.6715 79.5408 24.8065 78.9928 24.8065 78.9928 20.7355 79.4648 20.7355 82.2098 23.8975"></polygon>
                    <polygon id="Fill-33" fill="#FFFFFF" points="88.66 20.7355 89.214 20.7355 89.214 24.8065 88.712 24.8065 85.991 21.6715 85.991 24.8065 85.443 24.8065 85.443 20.7355 85.915 20.7355 88.66 23.8975"></polygon>
                    <polygon id="Fill-35" fill="#FFFFFF" points="91.8753 20.7355 94.1833 20.7355 94.1833 21.2545 92.4583 21.2545 92.4583 22.4965 94.1253 22.4965 94.1253 23.0175 92.4583 23.0175 92.4583 24.2825 94.2383 24.2825 94.2383 24.8005 91.8753 24.8005"></polygon>
                    <path d="M100.159,23.8625 L100.159,24.5045 C99.731,24.7365 99.238,24.8535 98.679,24.8535 C98.224,24.8535 97.838,24.7615 97.522,24.5795 C97.205,24.3965 96.954,24.1455 96.77,23.8245 C96.585,23.5045 96.493,23.1575 96.493,22.7845 C96.493,22.1915 96.704,21.6935 97.127,21.2895 C97.549,20.8845 98.071,20.6825 98.69,20.6825 C99.117,20.6825 99.593,20.7955 100.115,21.0185 L100.115,21.6445 C99.639,21.3735 99.174,21.2365 98.72,21.2365 C98.253,21.2365 97.866,21.3835 97.558,21.6785 C97.25,21.9725 97.096,22.3415 97.096,22.7845 C97.096,23.2315 97.248,23.5985 97.551,23.8855 C97.854,24.1735 98.242,24.3175 98.714,24.3175 C99.207,24.3175 99.689,24.1655 100.159,23.8625" id="Fill-37" fill="#FFFFFF"></path>
                    <polygon id="Fill-39" fill="#FFFFFF" points="102.3192 20.7297 105.7202 20.7297 105.7202 21.2487 104.3002 21.2487 104.3002 24.8067 103.7152 24.8067 103.7152 21.2487 102.3192 21.2487"></polygon>
                    <mask id="mask-2" fill="white">
                        <use xlink:href="#path-1"></use>
                    </mask>
                    <g id="Clip-42"></g>
                    <polygon id="Fill-41" fill="#FFFFFF" mask="url(#mask-2)" points="29.25 23.512 61.617 23.512 61.617 23.262 29.25 23.262"></polygon>
                    <polygon id="Fill-43" fill="#FFFFFF" mask="url(#mask-2)" points="111.802 23.512 144.169 23.512 144.169 23.262 111.802 23.262"></polygon>
                </g>
            </g>
        </g>
    </g>
</svg>