<svg width="200" height="46" xmlns="http://www.w3.org/2000/svg" xmlns:xlink="http://www.w3.org/1999/xlink"><defs><path id="a" d="M.208.03h11.059v32.395H.207z"/><path id="c" d="M.136.03h24.048v32.395H.136z"/></defs><g fill="none" fill-rule="evenodd"><path d="M28.628 31.85c-.603.302-2.85.518-3.745.574v.09h14.209v-.09c-.858-.067-2.703-.404-3.22-.66-.98-.47-1.416-1.162-1.416-2.244V5.774c0-.767.149-1.836 1.433-2.25.731-.241 2.299-.505 3.16-.565v-.09h-9.324a14.09 14.09 0 01-1.002 3.65l-8.188 19.427L9.614 2.87H.219v.088c1.23.053 2.863.295 3.895 1.112.927.742 1.397 2.022 1.397 3.805v17.842c0 3.44-.405 5.006-1.49 5.777-.915.647-2.72.808-3.688.895A20.45 20.45 0 000 32.42v.095h11.892v-.09c-.874-.06-3.714-.362-4.465-.98-1.072-.876-1.527-2.59-1.527-5.728V4.922l9.878 21.096c.87 1.973 1.789 4.375 2.298 6.015h.325l11.686-27.64V29.52c0 1.085-.45 1.803-1.459 2.33" fill="#fff"/><path d="M42.192 20.377c.133-4.642 2.112-7.76 4.922-7.76 2.715 0 4.09 2.581 4.09 7.676v.11l-9.016.09.004-.116zm5.447 12.662c3.385 0 6.364-1.92 7.987-5.14l-.167-.105c-1.678 2.667-3.252 4.112-6.64 4.112-4.398 0-6.627-3.48-6.627-10.345v-.854h13.032v-.283c0-2.411-.786-8.022-8.067-8.022-5.891 0-9.071 5.238-9.071 10.165 0 5.061 2.51 10.472 9.553 10.472zm22.307-5.726c-.3 1.738-1.329 3.718-3.287 3.718-3.119 0-3.48-2.584-3.48-4.529V13.447h5.949v-.477h-5.992V6.28h-3.581v6.69h-4.286v.477h4.198v13.58c0 3.931 1.744 5.924 5.18 5.924 2.408 0 5.033-1.745 5.516-5.638h-.217zm13.133 2.247l-.024.03c-1.167 1.46-2.557 2.14-4.373 2.14-1.96 0-3.085-1.41-3.085-3.872 0-3.889 3.002-5.617 7.513-7.016l.148-.046-.18 8.764zm8.213-2.027c-.156 1.719-.853 3.673-2.333 3.673-1.544 0-2.167-1.653-2.167-2.342 0-.55.03-1.572.071-2.866.062-2.048.149-4.85.149-7.236 0-5.881-3.357-6.36-7.411-6.36-3.204 0-6.929 1.976-6.929 4.523 0 .508.134 2.164 1.856 2.164 1.498 0 2.426-.919 2.426-1.77 0-.445-.108-.962-.222-1.51-.128-.623-.26-1.268-.26-1.9v-.04l.025-.03c.466-.57 1.21-1.223 2.841-1.223 3.593 0 3.873 3.533 3.873 4.616v3.173l-.06.031c-1.124.588-2.66 1.087-4.287 1.616-1.029.334-2.094.68-3.071 1.058-2.221.842-4.215 1.89-4.215 5.404 0 2.706 1.995 4.524 4.961 4.524 2.473 0 4.742-1.058 6.388-2.978l.034-.038h.262l.026.073c.705 2.03 1.79 2.856 3.743 2.856 2.812 0 4.249-1.723 4.515-5.418h-.215z" fill="#fff"/><g transform="translate(89.385 .089)"><mask id="b" fill="#fff"><use xlink:href="#a"/></mask><path d="M8.055.028L.208.5v.052c.474.032 2.367.18 2.967.58.67.462 1.131 1.358 1.23 2.4v26.424c0 1.097-.434 1.814-1.259 2.076a8.055 8.055 0 01-1.845.304v.089h9.966v-.09c-.725-.045-1.231-.104-1.86-.396-.79-.352-1.244-1.155-1.244-2.201V.136L8.055.028z" fill="#fff" mask="url(#b)"/></g><path d="M110.042 20.706c-3.604-1.174-5.411-1.762-5.411-4.349 0-1.86 1.33-3.74 3.871-3.74 3.102 0 5.317 2.974 6.287 5.552h.155l-.295-5.81h-.223l-.773 1.27-.097-.065c-1.117-.76-2.864-1.162-5.054-1.162-3.856 0-6.447 2.258-6.447 5.618 0 2.935 1.919 4.93 5.867 6.102 4.235 1.247 5.458 2.272 5.458 4.568 0 3.113-2.316 4.221-4.484 4.221-3.373 0-6.482-4.338-7.254-6.735h-.152l.21 6.556h.262l.781-1.564.109.11c.745.745 3.113 1.848 5.825 1.848 4.26 0 7.236-2.527 7.236-6.142 0-3.82-2.822-5.275-5.871-6.278m36.091-1.944v11.283c0 1.096-.435 1.814-1.258 2.075-.627.179-1.11.26-1.802.305v.09h9.923v-.09c-.748-.045-1.262-.097-1.858-.353-.79-.351-1.205-1.096-1.205-2.159V19.287c0-4.375-2.062-6.885-5.66-6.885-2.781 0-5.034 1.181-7.085 3.719l-.034.041h-.214l-.03-.067c-1.052-2.38-3.02-3.693-5.538-3.693-3.386 0-4.977 1.584-6.517 3.113-.149.149-.297.295-.446.44l-.032.033h-.244v-3.17l-.107-.107-6.973.471v.054c.555.038 1.472.165 2.093.58.67.46 1.13 1.357 1.23 2.4v13.829c0 1.096-.434 1.814-1.259 2.075a8.074 8.074 0 01-1.845.305v.09h10.01v-.09c-.635-.04-1.24-.09-1.904-.398-.791-.352-1.245-1.154-1.245-2.201l.01-12.992c.543-1.14 2.5-2.949 5.437-2.949 1.84 0 3.696 1.412 3.696 4.572v11.588c0 1.096-.435 1.814-1.258 2.075a7.404 7.404 0 01-1.759.305v.09h9.836v-.09c-.693-.045-1.231-.129-1.857-.397-.8-.355-1.205-1.067-1.205-2.115V16.678l.014-.026c.588-1.028 2.356-2.767 5.257-2.767 2.326 0 3.83 1.914 3.83 4.877" fill="#fff"/><path d="M159.66 12.71l-7.41.472v.054c.733.05 1.989.218 2.532.58.67.46 1.13 1.357 1.229 2.4v13.829c0 1.096-.434 1.814-1.258 2.075a8.09 8.09 0 01-1.846.305v.09h10.097v-.09c-.685-.043-1.336-.093-1.991-.398-.791-.352-1.245-1.154-1.245-2.201V12.818l-.107-.107zm17.193 14.603c-.3 1.738-1.329 3.718-3.287 3.718-3.119 0-3.48-2.584-3.48-4.529V13.447h5.949v-.477h-5.992V6.28h-3.581v6.69h-4.286v.477h4.197v13.58c0 3.931 1.745 5.924 5.181 5.924 2.408 0 5.033-1.745 5.515-5.638h-.216z" fill="#fff"/><g transform="translate(175.419 .089)"><mask id="d" fill="#fff"><use xlink:href="#c"/></mask><path d="M17.323 18.586v11.37c0 1.096-.435 1.815-1.258 2.075-.563.161-1.177.255-1.978.305v.09h10.097v-.09c-.746-.043-1.26-.097-1.857-.353-.777-.345-1.204-1.128-1.204-2.201v-10.67c0-4.384-2.073-6.798-5.836-6.798-3.416 0-5.04 1.608-6.608 3.162-.133.132-.266.262-.399.39l-.03.033h-.247V.134L7.896.029.136.5v.052c.464.031 2.275.177 2.88.58.672.462 1.131 1.36 1.23 2.4v26.424c0 1.096-.434 1.815-1.257 2.075a8.074 8.074 0 01-1.846.305v.09H11.24v-.09c-.686-.041-1.337-.093-1.99-.398-.793-.352-1.247-1.154-1.247-2.2l.011-12.992c.488-1.021 2.28-2.95 5.567-2.95 1.86 0 3.742 1.646 3.742 4.79" fill="#fff" mask="url(#d)"/></g><path fill="#fff" d="M157.627 7.286l-2.6-2.601 2.6-2.6 2.6 2.6zM97.628 45.927v-4.182l-1.684 4.182h-.253l-1.693-4.182v4.182h-.62v-4.973h.888l1.552 3.832 1.542-3.832h.888v4.973zm7.142 0v-4.973h3.26v.552h-2.64v1.603h2.586v.552h-2.585v1.714h2.639v.552zm13.123 0l-2.9-3.966v3.966h-.62v-4.973h.634l2.863 3.884v-3.884h.619v4.973zm8.351 0v-4.421h-1.572v-.552h3.77v.552h-1.58v4.421zm12.279-2.482c0-1.163-.722-2.022-1.833-2.022-1.118 0-1.826.859-1.826 2.022 0 1.154.708 2.02 1.826 2.02 1.11 0 1.833-.866 1.833-2.02m-4.301 0c0-1.468 1-2.573 2.468-2.573 1.47 0 2.475 1.105 2.475 2.573s-1.006 2.57-2.475 2.57c-1.468 0-2.468-1.102-2.468-2.57m14.188-.992c0-.567-.41-.948-.999-.948h-1.305v1.902h1.305c.59 0 1-.395 1-.954zm-.045 3.474l-1.259-1.976h-1v1.976h-.619v-4.973h1.998c.91 0 1.567.583 1.567 1.499 0 .895-.62 1.387-1.298 1.446l1.342 2.028h-.73zm6.726-.7l.373-.479c.321.372.857.717 1.558.717.887 0 1.17-.479 1.17-.866 0-1.28-2.944-.566-2.944-2.34 0-.82.73-1.387 1.715-1.387.753 0 1.342.26 1.758.701l-.372.455c-.373-.418-.895-.596-1.439-.596-.589 0-1.021.32-1.021.79 0 1.119 2.945.477 2.945 2.332 0 .716-.494 1.461-1.834 1.461-.857 0-1.499-.328-1.909-.788"/></g></svg>