<svg height="29" viewBox="0 0 282 29" width="282" xmlns="http://www.w3.org/2000/svg"><g fill="none" fill-rule="evenodd" transform="translate(1)"><path d="m107.589263 11.851575v-3.7352h-3.836737v3.7352h-2.082315v-9.306825h2.082315v3.683h3.836737v-3.683h2.081579v9.306825z" fill="#FFF"/><path d="m93.8817895.698175v22.9356511 4.5447489" stroke="#000" stroke-width="1.932"/><g fill="#FFF"><path d="m12.7407368 12.011075c-2.91863154 0-5.01347364-2.1402-5.01347364-4.785725v-.026825c0-2.645525 2.12210526-4.813275 5.04073684-4.813275 2.9193684 0 5.0134737 2.140925 5.0134737 4.78645v.026825c0 2.64625-2.1221053 4.81255-5.0407369 4.81255zm2.8648421-4.81255c0-1.595-1.1892631-2.925375-2.8648421-2.925375-1.6763157 0-2.83757891 1.304275-2.83757891 2.89855v.026825c0 1.595725 1.18926321 2.92465 2.86484211 2.92465 1.6748421 0 2.8375789-1.3021 2.8375789-2.897825z"/><path d="m37.7808421 11.8523-2.9326316-3.962125-1.0934737 1.11795v2.844175h-2.0823157v-9.30755h2.0823157v4.069425l3.8374737-4.069425h2.5126316l-3.8507368 3.9498 4.0268421 5.35775z"/><path d="m12.5786316 28.3011c-2.78378949 0-4.85136844-2.11265-4.85136844-4.78645v-.026825c0-2.645525 2.02705263-4.81255 4.93168424-4.81255 1.7838947 0 2.8515789.585075 3.7306315 1.4355l-1.3248421 1.502925c-.7294736-.6525-1.4736842-1.05125-2.4183157-1.05125-1.5945264 0-2.74326321 1.304275-2.74326321 2.899275v.0261c0 1.595725 1.12147371 2.9261 2.74326321 2.9261 1.0809473 0 1.7426315-.425575 2.4853684-1.091125l1.3248421 1.317325c-.9726316 1.022975-2.0528421 1.660975-3.878 1.660975"/><path d="m35.4907368 28.3011c-2.9193684 0-5.0134736-2.1402-5.0134736-4.78645v-.026825c0-2.645525 2.1213684-4.81255 5.04-4.81255 2.9193684 0 5.0142105 2.1402 5.0142105 4.78645v.0261c0 2.64625-2.1213684 4.813275-5.0407369 4.813275zm2.8648421-4.813275c0-1.595725-1.1892631-2.925375-2.8648421-2.925375-1.6755789 0-2.8375789 1.304275-2.8375789 2.899275v.0261c0 1.595725 1.1885263 2.9261 2.8641053 2.9261 1.6755789 0 2.8383157-1.302825 2.8383157-2.899275z"/><path d="m131.574947 28.1416v-6.076225l-2.662947 3.976625h-.053789l-2.634948-3.9353v6.0349h-2.040316v-9.306825h2.242948l2.486105 3.936025 2.486842-3.936025h2.243684v9.306825z"/><path d="m84.5791579 11.8523-.8650526-2.087275h-4.0003158l-.8643158 2.087275h-2.1228421l4.0548421-9.373525h1.9194737l4.0533684 9.373525zm-2.865579-6.91505-1.2555789 3.0189h2.5133684z"/><path d="m155.174526 11.8523v-6.076225l-2.66221 3.975175h-.053053l-2.634947-3.9353v6.03635h-2.041053v-9.30755h2.243684l2.485369 3.936025 2.487579-3.936025h2.243684v9.30755z"/><path d="m178.290737 11.8523-.864316-2.087275h-4.001053l-.864315 2.087275h-2.120632l4.053368-9.373525h1.918l4.054843 9.373525zm-2.864105-6.91505-1.25779 3.0189h2.514105z"/><path d="m82.5690526 20.722675v7.418925h-2.0808421v-7.418925h-2.8781052v-1.8879h7.8377894v1.8879z"/><path d="m101.963474 28.1416v-9.306825h7.135579v1.821925h-5.067264v1.887175h4.460106v1.821925h-4.460106v1.955325h5.135053v1.820475z"/><path d="m152.11 25.349625h-1.581263v2.791975h-2.080842v-9.306825h3.864737c2.256947 0 3.622315 1.315875 3.622315 3.2161v.028275c0 2.15325-1.703579 3.270475-3.824947 3.270475zm1.716842-3.257425c0-.91785-.649895-1.4094-1.689579-1.4094h-1.608526v2.8449h1.648316c1.041158 0 1.649789-.611175 1.649789-1.40795z"/><path d="m175.236526 28.3011c-2.918631 0-5.013473-2.1402-5.013473-4.78645v-.026825c0-2.645525 2.121368-4.81255 5.041473-4.81255 2.917158 0 5.012737 2.1402 5.012737 4.78645v.0261c0 2.64625-2.122105 4.813275-5.040737 4.813275zm2.864842-4.813275c0-1.595725-1.19-2.925375-2.864842-2.925375-1.675579 0-2.839052 1.304275-2.839052 2.899275v.0261c0 1.595725 1.190737 2.9261 2.867052 2.9261 1.674842 0 2.836842-1.302825 2.836842-2.899275z"/><path d="m199.942842 28.1416-2.027053-2.977575h-1.634315v2.977575h-2.081579v-9.306825h4.323789c2.231158 0 3.56779 1.156375 3.56779 3.071825v.0261c0 1.502925-.82379 2.44615-2.026316 2.884775l2.310737 3.324125zm.041263-6.12915c0-.877975-.622631-1.32965-1.635789-1.32965h-2.066842v2.673075h2.108105c1.013158 0 1.594526-.532875 1.594526-1.317325z"/><path d="m224.532 28.1416-.865053-2.087275h-3.999579l-.864315 2.087275h-2.121369l4.053369-9.3728h1.918l4.054842 9.3728zm-2.864105-6.914325-1.257053 3.018175h2.513369z"/><path d="m247.141263 28.1416-2.027789-2.977575h-1.634316v2.977575h-2.081579v-9.306825h4.324526c2.230421 0 3.56779 1.156375 3.56779 3.071825v.0261c0 1.502925-.824527 2.44615-2.027053 2.884775l2.31 3.324125zm.040526-6.12915c0-.877975-.621894-1.32965-1.635052-1.32965h-2.067579v2.673075h2.108842c1.013158 0 1.593789-.532875 1.593789-1.317325z"/><path d="m269.083684 24.4325v3.7091h-2.081579v-3.6685l-3.634842-5.638325h2.433053l2.255473 3.735925 2.297474-3.735925h2.364526z"/><path d="m55.5048421 11.8523v-9.30755h2.081579v7.446475h4.7157894v1.861075z"/><path d="m61.2411579 28.1416-4.5816842-5.916725v5.916725h-2.053579v-9.306825h1.9194737l4.4328421 5.729675v-5.729675h2.053579v9.306825z"/><path d="m128.710105 12.011075c-2.919368 0-5.012737-2.1402-5.012737-4.785725v-.026825c0-2.645525 2.121369-4.813275 5.04-4.813275 2.918632 0 5.012737 2.140925 5.012737 4.78645v.026825c0 2.64625-2.121368 4.81255-5.04 4.81255zm2.864842-4.81255c0-1.595-1.189263-2.925375-2.864842-2.925375s-2.838316 1.304275-2.838316 2.89855v.026825c0 1.595725 1.189264 2.92465 2.865579 2.92465 1.674843 0 2.837579-1.3021 2.837579-2.897825z"/></g><path d="m256.712105.698175v27.4804m22.660842-27.4804v27.4804m-45.866947-27.4804v27.4804m-23.206842-27.4804v27.4804m-23.207579-27.4804v27.602925m-23.206842-27.602925v27.4804m-23.206842-27.4804v27.4804m-70.1120003-27.4804v27.4804m46.6310523-27.4804v27.4804m-69.8378944-27.4804v27.4804m-23.4382105-27.4804v27.4804m-23.29378947-25.633825v25.75635" stroke="#000" stroke-width="1.932"/></g></svg>