<svg id="Layer_1" data-name="Layer 1" xmlns="http://www.w3.org/2000/svg" viewBox="0 0 600 600"><defs><style>.cls-1{fill:#fff;}</style></defs><title>SimoneManuel_Logo</title><path class="cls-1" d="M80.35,446.08h3.74a5.17,5.17,0,0,0,2.19,4.12,10.13,10.13,0,0,0,5.58,1.27q7.58,0,7.57-5.05A4.12,4.12,0,0,0,98,443a8.37,8.37,0,0,0-4.46-1.53l-4-.47Q81,440,81,433.16A7.24,7.24,0,0,1,83.92,427c1.92-1.46,4.56-2.19,7.9-2.19s5.82.7,7.67,2.1a8.47,8.47,0,0,1,3.21,6.23H99a4.89,4.89,0,0,0-1.95-3.8,8.85,8.85,0,0,0-5.19-1.26,9.31,9.31,0,0,0-5.27,1.23,4.08,4.08,0,0,0-1.78,3.57,3.92,3.92,0,0,0,1.38,3.19,8.37,8.37,0,0,0,4.31,1.53l4.12.47q8.67,1.14,8.67,8.07a7.47,7.47,0,0,1-3.06,6.38q-3.06,2.25-8.5,2.25-5.26,0-8.15-2.21A8.47,8.47,0,0,1,80.35,446.08Z"/><path class="cls-1" d="M120.71,425.21v29.32h-3.86V425.21Z"/><path class="cls-1" d="M164.65,454.53h-3.82V432.35l-9.31,16.36H148.8l-9.31-16.36v22.18h-3.86V425.21h3.86l10.67,19,10.67-19h3.82Z"/><path class="cls-1" d="M178.8,442v-4.29q0-6.42,3.21-9.67t9.07-3.25q5.82,0,9,3.25t3.16,9.67V442q0,6.42-3.21,9.66T191,454.92q-5.82,0-9-3.26T178.8,442Zm20.61,0v-4.12c0-3.32-.7-5.75-2.08-7.31s-3.49-2.34-6.29-2.34-4.94.78-6.31,2.34-2.07,4-2.07,7.31V442q0,4.8,2.07,7.1t6.31,2.29q4.2,0,6.29-2.29C198.71,447.61,199.41,445.24,199.41,442Z"/><path class="cls-1" d="M241.81,454.53h-3.87l-16.78-22.69v22.69h-3.87V425.21h3.87L237.94,448V425.21h3.87Z"/><path class="cls-1" d="M260.29,437.92h14.24v3.44H260.29v9.73h16.62v3.44H256.43V425.21h20.48v3.44H260.29Z"/><path class="cls-1" d="M337,454.53h-3.82V432.35l-9.31,16.36h-2.72l-9.3-16.36v22.18H308V425.21h3.87l10.66,19,10.67-19H337Z"/><path class="cls-1" d="M355.51,447.9l-2.63,6.63h-4l12.24-29.32h3.27l12.28,29.32h-4.08l-2.67-6.63ZM362.69,430l-5.86,14.66h11.73Z"/><path class="cls-1" d="M413,454.53h-3.87l-16.78-22.69v22.69h-3.87V425.21h3.87L409.09,448V425.21H413Z"/><path class="cls-1" d="M427.58,444V425.21h3.86v18.57q0,7.61,7.78,7.61t7.78-7.61V425.21h3.86V444c0,3.4-1,6-3.08,7.92s-4.91,2.83-8.56,2.83-6.51-.94-8.56-2.83S427.58,447.44,427.58,444Z"/><path class="cls-1" d="M469.34,437.92h14.24v3.44H469.34v9.73H486v3.44H465.48V425.21H486v3.44H469.34Z"/><path class="cls-1" d="M503.21,425.21v25.88h16.44v3.44H499.34V425.21Z"/><path class="cls-1" d="M231.21,189,201.3,145.08l-9.37,52.32a285.91,285.91,0,0,1-41.47,104.73,21.69,21.69,0,0,0,36.36,23.66,329.27,329.27,0,0,0,35.86-74.26q22.9,30.37,48.14,58.9c7-15.29,14.88-29.63,21.6-41.3A928.27,928.27,0,0,1,231.21,189Z"/><path class="cls-1" d="M449.34,302.13A285.91,285.91,0,0,1,407.87,197.4l-9.37-52.32L368.59,189a928.76,928.76,0,0,1-61,79.85l3.1,5.6c3.5,6.29,7.11,12.8,10.54,19.31,3.08,5.84,5.73,11.21,8.05,16.28q25-28.26,47.81-58.52A329.27,329.27,0,0,0,413,325.79a21.69,21.69,0,1,0,36.36-23.66Z"/><path class="cls-1" d="M329.38,339.13a55.66,55.66,0,0,0-2.66-9.67c-1.91-5.39-4.23-11-7.06-17.08-2.05-4.4-4.36-9.05-7-14.07-3.38-6.41-7-12.88-10.44-19.13l-1.37-2.46-.76-1.38c-.31.53-.62,1.07-.92,1.61-5.89,10.34-12.52,22.54-18.53,35.46q-1,2.1-1.94,4.23a132.8,132.8,0,0,0-6.81,17.95,26.55,26.55,0,0,0-1,11.68,28.47,28.47,0,0,0,9,17.22c7.8,7.13,16.79,9.57,26.73,7.24,11.3-2.64,18.48-9.51,22-21A23.53,23.53,0,0,0,329.38,339.13Z"/></svg>